<svg width="120" height="32" viewBox="0 0 120 32" fill="none" xmlns="http://www.w3.org/2000/svg">
  <rect width="32" height="32" rx="10" fill="#2563EB"/>
  <path d="M10 16C10 12.6863 12.6863 10 16 10H22C25.3137 10 28 12.6863 28 16C28 19.3137 25.3137 22 22 22H16C12.6863 22 10 19.3137 10 16Z" fill="white"/>
  <path d="M44 22V10H49.4C52.32 10 54 11.56 54 14.08C54 15.76 53.2 16.9 51.88 17.44L54.42 22H51.18L49.1 18.04H47.02V22H44ZM47.02 15.76H49.2C50.28 15.76 50.86 15.24 50.86 14.26C50.86 13.26 50.28 12.78 49.2 12.78H47.02V15.76Z" fill="#0F172A"/>
  <path d="M56.4258 22V10H59.4658V22H56.4258Z" fill="#0F172A"/>
  <path d="M62.4785 22V10H65.1985L70.4385 17.02V10H73.3985V22H70.8185L65.4385 14.82V22H62.4785Z" fill="#0F172A"/>
  <path d="M81.1016 22.22C77.4616 22.22 74.9216 19.78 74.9216 16C74.9216 12.22 77.5216 9.78 81.1616 9.78C83.8616 9.78 85.9616 11.1 86.9416 13.3L84.2816 14.74C83.7616 13.56 82.6216 12.84 81.1616 12.84C79.2216 12.84 77.9816 14.1 77.9816 16C77.9816 17.9 79.2216 19.16 81.2216 19.16C82.8616 19.16 84.0216 18.42 84.5016 17.2H81.0216V14.56H87.6816V15.54C87.6816 19.7 85.1216 22.22 81.1016 22.22Z" fill="#0F172A"/>
  <path d="M90.0957 22V10H98.3357V12.82H93.1357V14.64H97.8157V17.38H93.1357V19.18H98.3357V22H90.0957Z" fill="#0F172A"/>
</svg>
